<mxfile host="app.diagrams.net" modified="2023-10-04T07:22:19.021Z" agent="Mozilla/5.0 (Windows NT 10.0; Win64; x64) AppleWebKit/537.36 (KHTML, like Gecko) Chrome/117.0.0.0 Safari/537.36" etag="0da5cH0CfoJuaEae_Fsh" version="22.0.2" type="device">
  <diagram name="Page-1" id="wvGn78K-ny_nvsbwn7-i">
    <mxGraphModel dx="1434" dy="758" grid="1" gridSize="10" guides="1" tooltips="1" connect="1" arrows="1" fold="1" page="1" pageScale="1" pageWidth="827" pageHeight="1169" math="0" shadow="0">
      <root>
        <mxCell id="0" />
        <mxCell id="1" parent="0" />
        <mxCell id="k3qz7gnhiJx6e_zfPR3I-1" value="DatabaseConnection" style="swimlane;fontStyle=1;align=center;verticalAlign=top;childLayout=stackLayout;horizontal=1;startSize=26;horizontalStack=0;resizeParent=1;resizeParentMax=0;resizeLast=0;collapsible=1;marginBottom=0;whiteSpace=wrap;html=1;" vertex="1" parent="1">
          <mxGeometry x="480" y="270" width="160" height="52" as="geometry" />
        </mxCell>
        <mxCell id="k3qz7gnhiJx6e_zfPR3I-4" value="+&amp;nbsp;dbConnect&lt;span style=&quot;background-color: initial;&quot;&gt;():&amp;nbsp;&lt;/span&gt;PDO" style="text;strokeColor=none;fillColor=none;align=left;verticalAlign=top;spacingLeft=4;spacingRight=4;overflow=hidden;rotatable=0;points=[[0,0.5],[1,0.5]];portConstraint=eastwest;whiteSpace=wrap;html=1;" vertex="1" parent="k3qz7gnhiJx6e_zfPR3I-1">
          <mxGeometry y="26" width="160" height="26" as="geometry" />
        </mxCell>
        <mxCell id="k3qz7gnhiJx6e_zfPR3I-9" style="edgeStyle=orthogonalEdgeStyle;rounded=0;orthogonalLoop=1;jettySize=auto;html=1;endArrow=none;endFill=0;" edge="1" parent="1" source="k3qz7gnhiJx6e_zfPR3I-5" target="k3qz7gnhiJx6e_zfPR3I-1">
          <mxGeometry relative="1" as="geometry" />
        </mxCell>
        <mxCell id="k3qz7gnhiJx6e_zfPR3I-5" value="Exercise" style="swimlane;fontStyle=1;align=center;verticalAlign=top;childLayout=stackLayout;horizontal=1;startSize=26;horizontalStack=0;resizeParent=1;resizeParentMax=0;resizeLast=0;collapsible=1;marginBottom=0;whiteSpace=wrap;html=1;" vertex="1" parent="1">
          <mxGeometry x="220" y="270" width="210" height="52" as="geometry" />
        </mxCell>
        <mxCell id="k3qz7gnhiJx6e_zfPR3I-8" value="+&amp;nbsp;getAllExercisesTitle&lt;span style=&quot;background-color: initial;&quot;&gt;()&lt;/span&gt;" style="text;strokeColor=none;fillColor=none;align=left;verticalAlign=top;spacingLeft=4;spacingRight=4;overflow=hidden;rotatable=0;points=[[0,0.5],[1,0.5]];portConstraint=eastwest;whiteSpace=wrap;html=1;" vertex="1" parent="k3qz7gnhiJx6e_zfPR3I-5">
          <mxGeometry y="26" width="210" height="26" as="geometry" />
        </mxCell>
      </root>
    </mxGraphModel>
  </diagram>
</mxfile>
